HIERARCHY
ROOT mixamorig:Hips
{
	OFFSET -0.000008 104.274872 1.554316
	CHANNELS 6 Xposition Yposition Zposition Xrotation Yrotation Zrotation
	JOINT mixamorig:Spine
	{
		OFFSET -0.000005 10.181595 0.131519
		CHANNELS 6 Xposition Yposition Zposition Xrotation Yrotation Zrotation
		JOINT mixamorig:Spine1
		{
			OFFSET -0.000000 9.893959 -1.470707
			CHANNELS 6 Xposition Yposition Zposition Xrotation Yrotation Zrotation
			JOINT mixamorig:Spine2
			{
				OFFSET -0.000000 9.220757 -1.370641
				CHANNELS 6 Xposition Yposition Zposition Xrotation Yrotation Zrotation
				JOINT mixamorig:Neck
				{
					OFFSET 0.000001 16.740417 -2.049036
					CHANNELS 6 Xposition Yposition Zposition Xrotation Yrotation Zrotation
					JOINT mixamorig:Head
					{
						OFFSET 0.000000 9.617874 1.685006
						CHANNELS 6 Xposition Yposition Zposition Xrotation Yrotation Zrotation
						JOINT mixamorig:HeadTop_End
						{
							OFFSET 0.000002 22.037354 7.501101
							CHANNELS 6 Xposition Yposition Zposition Xrotation Yrotation Zrotation
							End Site
							{
								OFFSET 0.000168 2310.654297 -282.823242
							}
						}
					}
				}
				JOINT mixamorig:RightShoulder
				{
					OFFSET -4.569970 11.014908 -2.160885
					CHANNELS 6 Xposition Yposition Zposition Xrotation Yrotation Zrotation
					JOINT mixamorig:RightArm
					{
						OFFSET -10.592851 -0.524811 -2.232101
						CHANNELS 6 Xposition Yposition Zposition Xrotation Yrotation Zrotation
						JOINT mixamorig:RightForeArm
						{
							OFFSET -27.841511 0.000031 -0.000004
							CHANNELS 6 Xposition Yposition Zposition Xrotation Yrotation Zrotation
							JOINT mixamorig:RightHand
							{
								OFFSET -28.328831 -0.000015 0.000015
								CHANNELS 6 Xposition Yposition Zposition Xrotation Yrotation Zrotation
								JOINT mixamorig:RightHandThumb1
								{
									OFFSET -2.464806 -1.573990 2.681852
									CHANNELS 6 Xposition Yposition Zposition Xrotation Yrotation Zrotation
									JOINT mixamorig:RightHandThumb2
									{
										OFFSET -3.215179 -1.872803 1.924282
										CHANNELS 6 Xposition Yposition Zposition Xrotation Yrotation Zrotation
										JOINT mixamorig:RightHandThumb3
										{
											OFFSET -2.654831 -1.527969 1.512609
											CHANNELS 6 Xposition Yposition Zposition Xrotation Yrotation Zrotation
											JOINT mixamorig:RightHandThumb4
											{
												OFFSET -2.018814 -1.152008 1.108052
												CHANNELS 6 Xposition Yposition Zposition Xrotation Yrotation Zrotation
												End Site
												{
													OFFSET -188.809540 -114.533607 132.431396
												}
											}
										}
									}
								}
								JOINT mixamorig:RightHandIndex1
								{
									OFFSET -9.108284 -0.517868 2.259835
									CHANNELS 6 Xposition Yposition Zposition Xrotation Yrotation Zrotation
									JOINT mixamorig:RightHandIndex2
									{
										OFFSET -3.699989 0.000000 0.001215
										CHANNELS 6 Xposition Yposition Zposition Xrotation Yrotation Zrotation
										JOINT mixamorig:RightHandIndex3
										{
											OFFSET -2.850006 0.000031 -0.000522
											CHANNELS 6 Xposition Yposition Zposition Xrotation Yrotation Zrotation
											JOINT mixamorig:RightHandIndex4
											{
												OFFSET -2.772186 -0.000015 -0.000020
												CHANNELS 6 Xposition Yposition Zposition Xrotation Yrotation Zrotation
												End Site
												{
													OFFSET -277.218445 0.000000 -0.050231
												}
											}
										}
									}
								}
								JOINT mixamorig:RightHandMiddle1
								{
									OFFSET -9.532516 -0.000031 -0.000023
									CHANNELS 6 Xposition Yposition Zposition Xrotation Yrotation Zrotation
									JOINT mixamorig:RightHandMiddle2
									{
										OFFSET -3.700005 -0.000015 0.003713
										CHANNELS 6 Xposition Yposition Zposition Xrotation Yrotation Zrotation
										JOINT mixamorig:RightHandMiddle3
										{
											OFFSET -2.949974 0.000015 -0.002054
											CHANNELS 6 Xposition Yposition Zposition Xrotation Yrotation Zrotation
											JOINT mixamorig:RightHandMiddle4
											{
												OFFSET -2.946640 0.000000 -0.000156
												CHANNELS 6 Xposition Yposition Zposition Xrotation Yrotation Zrotation
												End Site
												{
													OFFSET -294.664337 0.000000 -0.113670
												}
											}
										}
									}
								}
								JOINT mixamorig:RightHandRing1
								{
									OFFSET -9.103600 -0.043076 -1.865134
									CHANNELS 6 Xposition Yposition Zposition Xrotation Yrotation Zrotation
									JOINT mixamorig:RightHandRing2
									{
										OFFSET -3.379288 0.000000 -0.001055
										CHANNELS 6 Xposition Yposition Zposition Xrotation Yrotation Zrotation
										JOINT mixamorig:RightHandRing3
										{
											OFFSET -2.889687 -0.000015 0.000379
											CHANNELS 6 Xposition Yposition Zposition Xrotation Yrotation Zrotation
											JOINT mixamorig:RightHandRing4
											{
												OFFSET -2.638809 -0.000015 0.000941
												CHANNELS 6 Xposition Yposition Zposition Xrotation Yrotation Zrotation
												End Site
												{
													OFFSET -263.880371 0.000000 0.516020
												}
											}
										}
									}
								}
								JOINT mixamorig:RightHandPinky1
								{
									OFFSET -8.076683 -0.486710 -3.806280
									CHANNELS 6 Xposition Yposition Zposition Xrotation Yrotation Zrotation
									JOINT mixamorig:RightHandPinky2
									{
										OFFSET -3.600014 -0.000015 -0.003747
										CHANNELS 6 Xposition Yposition Zposition Xrotation Yrotation Zrotation
										JOINT mixamorig:RightHandPinky3
										{
											OFFSET -2.099983 0.000000 -0.005739
											CHANNELS 6 Xposition Yposition Zposition Xrotation Yrotation Zrotation
											JOINT mixamorig:RightHandPinky4
											{
												OFFSET -2.115768 -0.000031 -0.003680
												CHANNELS 6 Xposition Yposition Zposition Xrotation Yrotation Zrotation
												End Site
												{
													OFFSET -211.577087 0.000000 -0.350686
												}
											}
										}
									}
								}
							}
						}
					}
				}
				JOINT mixamorig:LeftShoulder
				{
					OFFSET 4.570447 11.014725 -2.160855
					CHANNELS 6 Xposition Yposition Zposition Xrotation Yrotation Zrotation
					JOINT mixamorig:LeftArm
					{
						OFFSET 10.592371 -0.524597 -2.232119
						CHANNELS 6 Xposition Yposition Zposition Xrotation Yrotation Zrotation
						JOINT mixamorig:LeftForeArm
						{
							OFFSET 27.841532 -0.000031 0.000026
							CHANNELS 6 Xposition Yposition Zposition Xrotation Yrotation Zrotation
							JOINT mixamorig:LeftHand
							{
								OFFSET 28.328846 -0.000061 0.000022
								CHANNELS 6 Xposition Yposition Zposition Xrotation Yrotation Zrotation
								JOINT mixamorig:LeftHandThumb1
								{
									OFFSET 2.466141 -1.576172 2.681732
									CHANNELS 6 Xposition Yposition Zposition Xrotation Yrotation Zrotation
									JOINT mixamorig:LeftHandThumb2
									{
										OFFSET 3.217812 -1.872070 1.916482
										CHANNELS 6 Xposition Yposition Zposition Xrotation Yrotation Zrotation
										JOINT mixamorig:LeftHandThumb3
										{
											OFFSET 2.656029 -1.528778 1.514513
											CHANNELS 6 Xposition Yposition Zposition Xrotation Yrotation Zrotation
											JOINT mixamorig:LeftHandThumb4
											{
												OFFSET 2.020889 -1.154053 1.115139
												CHANNELS 6 Xposition Yposition Zposition Xrotation Yrotation Zrotation
												End Site
												{
													OFFSET 190.885437 -115.081749 130.048782
												}
											}
										}
									}
								}
								JOINT mixamorig:LeftHandIndex1
								{
									OFFSET 9.109314 -0.518021 2.259871
									CHANNELS 6 Xposition Yposition Zposition Xrotation Yrotation Zrotation
									JOINT mixamorig:LeftHandIndex2
									{
										OFFSET 3.699989 0.000000 -0.000322
										CHANNELS 6 Xposition Yposition Zposition Xrotation Yrotation Zrotation
										JOINT mixamorig:LeftHandIndex3
										{
											OFFSET 2.850006 0.000000 0.000352
											CHANNELS 6 Xposition Yposition Zposition Xrotation Yrotation Zrotation
											JOINT mixamorig:LeftHandIndex4
											{
												OFFSET 2.774864 -0.000031 -0.000027
												CHANNELS 6 Xposition Yposition Zposition Xrotation Yrotation Zrotation
												End Site
												{
													OFFSET 277.486267 0.000000 -0.009857
												}
											}
										}
									}
								}
								JOINT mixamorig:LeftHandMiddle1
								{
									OFFSET 9.533394 0.000061 0.000044
									CHANNELS 6 Xposition Yposition Zposition Xrotation Yrotation Zrotation
									JOINT mixamorig:LeftHandMiddle2
									{
										OFFSET 3.699989 -0.000015 -0.000231
										CHANNELS 6 Xposition Yposition Zposition Xrotation Yrotation Zrotation
										JOINT mixamorig:LeftHandMiddle3
										{
											OFFSET 2.949997 -0.000015 -0.000059
											CHANNELS 6 Xposition Yposition Zposition Xrotation Yrotation Zrotation
											JOINT mixamorig:LeftHandMiddle4
											{
												OFFSET 2.952896 0.000031 0.000063
												CHANNELS 6 Xposition Yposition Zposition Xrotation Yrotation Zrotation
												End Site
												{
													OFFSET 295.289337 0.000000 0.022810
												}
											}
										}
									}
								}
								JOINT mixamorig:LeftHandRing1
								{
									OFFSET 9.104523 -0.042999 -1.865074
									CHANNELS 6 Xposition Yposition Zposition Xrotation Yrotation Zrotation
									JOINT mixamorig:LeftHandRing2
									{
										OFFSET 3.150009 -0.000031 0.000043
										CHANNELS 6 Xposition Yposition Zposition Xrotation Yrotation Zrotation
										JOINT mixamorig:LeftHandRing3
										{
											OFFSET 2.949982 -0.000015 0.000040
											CHANNELS 6 Xposition Yposition Zposition Xrotation Yrotation Zrotation
											JOINT mixamorig:LeftHandRing4
											{
												OFFSET 2.644348 0.000000 0.000057
												CHANNELS 6 Xposition Yposition Zposition Xrotation Yrotation Zrotation
												End Site
												{
													OFFSET 264.434631 0.000000 0.012105
												}
											}
										}
									}
								}
								JOINT mixamorig:LeftHandPinky1
								{
									OFFSET 8.077789 -0.486847 -3.806259
									CHANNELS 6 Xposition Yposition Zposition Xrotation Yrotation Zrotation
									JOINT mixamorig:LeftHandPinky2
									{
										OFFSET 3.599953 0.000031 0.014727
										CHANNELS 6 Xposition Yposition Zposition Xrotation Yrotation Zrotation
										JOINT mixamorig:LeftHandPinky3
										{
											OFFSET 2.100021 0.000015 0.007705
											CHANNELS 6 Xposition Yposition Zposition Xrotation Yrotation Zrotation
											JOINT mixamorig:LeftHandPinky4
											{
												OFFSET 2.125504 0.000031 0.007517
												CHANNELS 6 Xposition Yposition Zposition Xrotation Yrotation Zrotation
												End Site
												{
													OFFSET 212.550781 0.000000 0.625752
												}
											}
										}
									}
								}
							}
						}
					}
				}
			}
		}
	}
	JOINT mixamorig:RightUpLeg
	{
		OFFSET -8.207787 -6.751648 -1.599560
		CHANNELS 6 Xposition Yposition Zposition Xrotation Yrotation Zrotation
		JOINT mixamorig:RightLeg
		{
			OFFSET -0.000002 -44.370117 0.345942
			CHANNELS 6 Xposition Yposition Zposition Xrotation Yrotation Zrotation
			JOINT mixamorig:RightFoot
			{
				OFFSET 0.000003 -44.423679 -3.043532
				CHANNELS 6 Xposition Yposition Zposition Xrotation Yrotation Zrotation
				JOINT mixamorig:RightToeBase
				{
					OFFSET -0.000002 -8.728671 10.710558
					CHANNELS 6 Xposition Yposition Zposition Xrotation Yrotation Zrotation
					JOINT mixamorig:RightToe_End
					{
						OFFSET -0.000001 -0.000679 9.278119
						CHANNELS 6 Xposition Yposition Zposition Xrotation Yrotation Zrotation
						End Site
						{
							OFFSET 0.000000 -0.067690 927.812134
						}
					}
				}
			}
		}
	}
	JOINT mixamorig:LeftUpLeg
	{
		OFFSET 8.207793 -6.751686 -1.599556
		CHANNELS 6 Xposition Yposition Zposition Xrotation Yrotation Zrotation
		JOINT mixamorig:LeftLeg
		{
			OFFSET -0.000004 -44.370014 0.346954
			CHANNELS 6 Xposition Yposition Zposition Xrotation Yrotation Zrotation
			JOINT mixamorig:LeftFoot
			{
				OFFSET -0.000001 -44.423672 -3.044401
				CHANNELS 6 Xposition Yposition Zposition Xrotation Yrotation Zrotation
				JOINT mixamorig:LeftToeBase
				{
					OFFSET -0.000002 -8.728669 10.710558
					CHANNELS 6 Xposition Yposition Zposition Xrotation Yrotation Zrotation
					JOINT mixamorig:LeftToe_End
					{
						OFFSET -0.000003 -0.000679 9.278133
						CHANNELS 6 Xposition Yposition Zposition Xrotation Yrotation Zrotation
						End Site
						{
							OFFSET 0.000000 -0.068021 927.813477
						}
					}
				}
			}
		}
	}
}
MOTION
Frames: 3
Frame Time: 0.033333
0.000006 104.270477 1.554256 0.000010 0.000003 -0.000113 -0.000005 10.181587 0.131522 0.000001 -0.000003 0.000084 -0.000000 9.893967 -1.470711 0.000001 0.000000 -0.000000 -0.000000 9.220802 -1.370642 0.000000 -0.000000 -0.000000 0.000001 16.740433 -2.049030 0.000000 -0.000000 -0.000000 0.000000 9.617859 1.685014 0.000000 0.000000 0.000000 0.000002 22.037384 7.501101 0.000000 -0.000000 0.000000 -4.569968 11.014880 -2.160881 0.000008 0.000001 -0.000038 -10.592772 -0.524847 -2.231733 77.619745 68.057999 -57.013030 -27.841486 0.000012 0.000581 51.152827 106.728434 -65.531751 -28.328835 0.000021 0.000035 -0.000319 -0.000044 0.000006 -2.464544 -1.574211 2.682116 88.925006 -131.328309 139.416059 -3.214870 -1.873023 1.924641 224.115582 -47.730294 283.660980 -2.654529 -1.528176 1.513102 195.451054 -39.336941 259.122405 -2.018829 -1.151999 1.108055 -0.000007 0.000000 -0.000000 -9.108121 -0.517898 2.260424 177.101341 17.838118 -161.953443 -3.699738 0.000040 0.001816 179.986850 22.149774 -179.825630 -2.849820 0.000022 0.000086 -1.399477 160.360083 8.077346 -2.772171 0.000000 -0.000015 0.000003 0.000003 -0.000000 -9.532314 -0.000077 0.000562 177.016005 12.252289 -153.965701 -3.699722 0.000042 0.004305 360.955663 168.429637 -8.687745 -2.949759 0.000031 -0.001483 0.666272 169.042114 -6.878453 -2.946622 -0.000001 -0.000161 -0.000007 0.000001 -0.000001 -9.103472 -0.043113 -1.864542 175.201811 9.771166 -127.274046 -3.379075 0.000283 -0.000517 354.123452 -176.441408 242.282191 -2.889302 0.000090 0.000921 359.170115 -175.509620 -20.100741 -2.638801 -0.000003 0.000949 0.000002 -0.000002 0.000003 -8.076568 -0.486736 -3.805707 175.414831 6.010433 -102.789436 -3.599614 0.000093 -0.003224 356.333319 -169.983150 -42.069413 -2.099599 -0.000147 -0.005221 364.166125 -168.954674 38.768355 -2.115777 -0.000031 -0.003677 -0.000001 -0.000001 -0.000006 4.570446 11.014691 -2.160851 -0.000018 0.000010 -0.000021 10.592524 -0.524543 -2.232383 67.619166 -68.149818 48.739506 27.841761 -0.000054 -0.000105 44.672716 -107.291931 58.343169 28.328840 -0.000014 0.000032 0.000018 -0.000089 -0.000000 2.466145 -1.576173 2.681878 -70.026883 39.957563 25.277801 3.217820 -1.872019 1.916517 -83.908471 40.152152 394.426076 2.656055 -1.528762 1.514598 -72.655967 23.954404 24.864004 2.020899 -1.154088 1.115144 0.000001 0.000005 0.000002 9.109233 -0.517712 2.260064 -138.181188 -12.448183 -31.847833 3.699857 0.000259 -0.000110 -129.917629 -18.325305 -38.109597 2.849914 0.000291 0.000598 -120.784696 -18.921509 -32.686075 2.774879 -0.000030 -0.000034 0.000002 -0.000000 0.000000 9.533323 0.000340 0.000256 -132.128821 -10.105132 -22.517995 3.699909 0.000267 0.000018 -120.841100 -16.846209 -29.241030 2.949936 0.000233 0.000175 69.125408 -163.765656 156.603452 2.952856 0.000001 0.000063 0.000002 -0.000000 0.000001 9.104450 -0.042732 -1.864843 -123.739764 -11.767619 -21.823143 3.149975 0.000246 0.000287 -109.463678 -7.585737 -10.712583 2.949968 0.000225 0.000287 -98.826164 -6.237764 -7.280004 2.644326 0.000044 0.000058 0.000000 -0.000000 -0.000000 8.077734 -0.486664 -3.806007 -105.514210 -11.037343 -14.964627 3.599969 0.000206 0.014976 -95.085877 1.872092 1.571701 2.100002 0.000179 0.007933 269.497326 2.427945 -357.974859 2.125501 -0.000030 0.007521 0.000002 0.000000 0.000001 -8.207786 -6.751667 -1.599560 -0.077001 -0.000003 0.000080 -0.000002 -44.370110 0.345938 0.153719 -0.000000 -0.000000 0.000000 -44.423679 -3.043532 -0.076700 0.000000 -0.000002 -0.000006 -8.728667 10.710559 -0.000009 -0.000000 -0.000000 -0.000001 -0.000679 9.278123 0.000000 -0.000000 -0.000000 8.207792 -6.751710 -1.599556 -0.074518 -0.000003 0.000081 -0.000002 -44.370014 0.346960 0.148822 0.000002 0.000000 -0.000001 -44.423664 -3.044403 -0.074314 0.000000 -0.000002 -0.000004 -8.728671 10.710558 0.000007 -0.000000 -0.000000 0.000000 -0.000680 9.278137 -0.000000 0.000000 -0.000001 
0.000006 104.270477 1.554256 0.000010 0.000003 -0.000113 -0.000005 10.181587 0.131522 0.000001 -0.000003 0.000084 -0.000000 9.893967 -1.470711 0.000001 0.000000 -0.000000 -0.000000 9.220802 -1.370642 0.000000 -0.000000 -0.000000 0.000001 16.740433 -2.049030 0.000000 -0.000000 -0.000000 0.000000 9.617859 1.685014 0.000000 0.000000 0.000000 0.000002 22.037384 7.501101 0.000000 -0.000000 0.000000 -4.569968 11.014880 -2.160881 0.000008 0.000001 -0.000038 -10.592767 -0.524845 -2.231728 77.792235 68.732146 -57.772534 -27.841488 0.000009 0.000589 51.505172 106.862305 -66.070940 -28.328829 0.000006 0.000022 -0.000324 -0.000045 0.000007 -2.464472 -1.574186 2.682174 58.132560 -122.878573 112.082380 -3.214827 -1.872976 1.924657 208.362366 -48.628474 268.009246 -2.654487 -1.528113 1.513119 184.789074 -38.661982 246.632776 -2.018834 -1.151989 1.108053 -0.000006 -0.000003 -0.000001 -9.108240 -0.517883 2.260399 168.078606 16.554509 -108.957958 -3.700127 0.000206 0.001394 234.946869 152.047073 -194.732518 -2.850072 0.000081 -0.000487 6.330877 14.382659 -0.799455 -2.772160 -0.000015 -0.000024 0.000003 0.000002 -0.000002 -9.532542 0.000033 0.000518 161.297841 10.639273 -59.804822 -3.700022 0.000196 0.003750 397.698802 5.587102 -1.877219 -2.950004 -0.000022 -0.002036 -5.075374 3.016104 0.133602 -2.946630 0.000014 -0.000154 0.000002 0.000002 0.000002 -9.103653 -0.042917 -1.864606 159.754477 6.505010 -35.071782 -3.379118 0.000131 -0.001112 209.544316 -154.164227 186.922006 -2.889637 -0.000010 0.000344 353.243942 -15.642303 -0.921063 -2.638808 -0.000020 0.000935 0.000005 -0.000003 -0.000003 -8.076642 -0.486459 -3.805750 164.372245 -1.163583 9.268876 -3.599769 0.000135 -0.003793 394.211690 -36.741620 11.643107 -2.099857 0.000015 -0.005802 359.427039 -23.663814 -0.162741 -2.115758 -0.000062 -0.003678 0.000001 0.000003 -0.000001 4.570446 11.014691 -2.160851 -0.000018 0.000010 -0.000021 10.592530 -0.524540 -2.232390 69.815386 -66.587248 49.240678 27.841770 -0.000067 -0.000102 37.033125 -105.905833 47.852906 28.328833 -0.000014 0.000031 0.000022 -0.000088 -0.000000 2.466173 -1.576138 2.681893 -69.034655 22.230060 21.958563 3.217824 -1.871993 1.916529 -91.463138 36.630619 397.903981 2.656041 -1.528768 1.514613 -83.228157 25.100740 30.262639 2.020880 -1.154074 1.115151 0.000002 0.000004 0.000004 9.109093 -0.517750 2.260030 -158.212835 -16.595959 -74.305963 3.699745 0.000212 -0.000148 -155.079527 -23.549025 -86.658886 2.849780 0.000254 0.000544 -151.534099 -24.032767 -80.004349 2.774882 -0.000015 -0.000040 0.000000 -0.000003 -0.000001 9.533193 0.000343 0.000194 -159.324503 -13.809832 -67.151114 3.699784 0.000263 -0.000051 -153.308240 -20.143263 -73.642867 2.949797 0.000268 0.000121 31.031578 -158.147826 110.373637 2.952879 -0.000031 0.000080 -0.000003 0.000000 -0.000002 9.104275 -0.042750 -1.864933 -161.957965 -14.090539 -75.799083 3.149766 0.000386 0.000226 -155.378594 -16.016486 -65.619089 2.949754 0.000368 0.000262 -144.179433 -18.185840 -52.691843 2.644310 0.000032 0.000058 0.000001 -0.000000 -0.000000 8.077565 -0.486830 -3.806144 -174.328653 -18.927829 -145.113721 3.599680 0.000334 0.014864 -165.309484 -12.218887 -79.686711 2.099782 0.000388 0.007874 203.623034 -13.211696 -418.547845 2.125488 -0.000016 0.007520 -0.000001 -0.000001 0.000000 -8.207786 -6.751667 -1.599560 -0.077001 -0.000003 0.000080 -0.000002 -44.370110 0.345938 0.153719 -0.000000 -0.000000 0.000000 -44.423679 -3.043532 -0.076700 0.000000 -0.000002 -0.000006 -8.728667 10.710559 -0.000009 -0.000000 -0.000000 -0.000001 -0.000679 9.278123 0.000000 -0.000000 -0.000000 8.207792 -6.751710 -1.599556 -0.074518 -0.000003 0.000081 -0.000002 -44.370014 0.346960 0.148822 0.000002 0.000000 -0.000001 -44.423664 -3.044403 -0.074314 0.000000 -0.000002 -0.000004 -8.728671 10.710558 0.000007 -0.000000 -0.000000 0.000000 -0.000680 9.278137 -0.000000 0.000000 -0.000001 
0.000006 104.270477 1.554256 0.000010 0.000003 -0.000113 -0.000005 10.181587 0.131522 0.000001 -0.000003 0.000084 -0.000000 9.893967 -1.470711 0.000001 0.000000 -0.000000 -0.000000 9.220802 -1.370642 0.000000 -0.000000 -0.000000 0.000001 16.740433 -2.049030 0.000000 -0.000000 -0.000000 0.000000 9.617859 1.685014 0.000000 0.000000 0.000000 0.000002 22.037384 7.501101 0.000000 -0.000000 0.000000 -4.569968 11.014880 -2.160881 0.000008 0.000001 -0.000038 -10.592760 -0.524851 -2.231726 77.768732 69.947339 -58.857209 -27.841488 0.000002 0.000598 51.074550 107.939774 -66.599706 -28.328829 0.000021 0.000030 -0.000324 -0.000044 0.000007 -2.464533 -1.574207 2.682132 84.030745 -130.047198 135.556674 -3.214827 -1.872971 1.924690 205.530829 -47.360508 265.990434 -2.654446 -1.528029 1.513133 160.935199 -34.982627 214.033526 -2.018830 -1.152002 1.108046 -0.000003 -0.000007 0.000000 -9.108323 -0.517806 2.260383 160.784484 13.560242 -70.418670 -3.700076 0.000205 0.001318 223.641799 161.168873 -187.585886 -2.850093 0.000042 -0.000485 -2.639311 9.486556 0.219086 -2.772171 -0.000000 -0.000020 -0.000000 -0.000003 0.000003 -9.532557 0.000107 0.000491 156.034333 7.597788 -35.399101 -3.699966 0.000158 0.003699 388.115883 -6.568277 1.661437 -2.949990 -0.000063 -0.002022 -14.908507 -1.375459 -0.180833 -2.946628 -0.000003 -0.000159 0.000000 0.000003 -0.000002 -9.103642 -0.042819 -1.864614 155.179576 4.552258 -20.290822 -3.379111 0.000069 -0.001115 196.255281 -152.639961 183.983481 -2.889644 -0.000100 0.000371 338.723834 -15.013493 -2.822582 -2.638810 -0.000011 0.000951 0.000001 0.000002 0.000000 -8.076631 -0.486440 -3.805772 158.605503 -2.652351 14.521966 -3.599819 0.000038 -0.003793 373.471902 -32.282759 3.857656 -2.099889 -0.000081 -0.005755 341.396105 -18.302257 -3.087805 -2.115769 -0.000050 -0.003681 0.000002 0.000003 -0.000003 4.570446 11.014691 -2.160851 -0.000018 0.000010 -0.000021 10.592531 -0.524529 -2.232400 71.177914 -65.508515 49.441783 27.841787 -0.000065 -0.000126 26.585535 -105.423034 34.474198 28.328842 -0.000014 0.000019 0.000022 -0.000089 -0.000001 2.466180 -1.576108 2.681902 -81.208729 23.743708 27.806211 3.217840 -1.871980 1.916544 -97.708513 35.724338 401.382842 2.656083 -1.528732 1.514621 -93.431483 29.442476 37.118479 2.020895 -1.154063 1.115148 0.000003 0.000003 0.000004 9.109055 -0.517816 2.259989 -168.739209 -14.430598 -104.194761 3.699734 0.000062 -0.000219 -174.161204 -15.714042 -139.378807 2.849818 0.000012 0.000439 -178.185101 -15.133891 -166.408147 2.774891 -0.000015 -0.000024 -0.000000 -0.000001 -0.000002 9.533127 0.000269 0.000165 -169.181382 -13.568948 -102.972663 3.699735 0.000097 -0.000125 -173.520109 -14.727343 -132.698882 2.949788 0.000031 0.000034 3.169143 -164.780049 23.409614 2.952868 -0.000014 0.000066 -0.000002 0.000000 0.000002 9.104269 -0.042778 -1.864961 -168.865185 -12.205069 -95.286787 3.149623 0.000238 0.000155 -172.355930 -12.233659 -116.118257 2.949568 0.000273 0.000169 -171.811360 -12.077120 -111.826473 2.644318 0.000050 0.000054 0.000001 -0.000000 -0.000000 8.077507 -0.486642 -3.806133 -167.972711 -13.926183 -98.104521 3.599633 0.000314 0.014849 -169.348352 -10.280294 -88.006946 2.099752 0.000392 0.007837 193.993191 -8.272869 -421.961000 2.125498 -0.000000 0.007518 0.000002 -0.000004 -0.000000 -8.207786 -6.751667 -1.599560 -0.077001 -0.000003 0.000080 -0.000002 -44.370110 0.345938 0.153719 -0.000000 -0.000000 0.000000 -44.423679 -3.043532 -0.076700 0.000000 -0.000002 -0.000006 -8.728667 10.710559 -0.000009 -0.000000 -0.000000 -0.000001 -0.000679 9.278123 0.000000 -0.000000 -0.000000 8.207792 -6.751710 -1.599556 -0.074518 -0.000003 0.000081 -0.000002 -44.370014 0.346960 0.148822 0.000002 0.000000 -0.000001 -44.423664 -3.044403 -0.074314 0.000000 -0.000002 -0.000004 -8.728671 10.710558 0.000007 -0.000000 -0.000000 0.000000 -0.000680 9.278137 -0.000000 0.000000 -0.000001 
